<?xml version="1.0" encoding="UTF-8" standalone="no"?>
<!-- Created with Inkscape (http://www.inkscape.org/) -->

<svg
   width="350"
   height="180"
   viewBox="0 0 92.604165 47.625"
   version="1.1"
   id="svg1"
   xml:space="preserve"
   inkscape:version="1.4 (e7c3feb100, 2024-10-09)"
   sodipodi:docname="sb-logo_text.svg"
   inkscape:export-filename="versions.png"
   inkscape:export-xdpi="96"
   inkscape:export-ydpi="96"
   xmlns:inkscape="http://www.inkscape.org/namespaces/inkscape"
   xmlns:sodipodi="http://sodipodi.sourceforge.net/DTD/sodipodi-0.dtd"
   xmlns="http://www.w3.org/2000/svg"
   xmlns:svg="http://www.w3.org/2000/svg"><sodipodi:namedview
     id="namedview1"
     pagecolor="#ffffff"
     bordercolor="#666666"
     borderopacity="1.0"
     inkscape:showpageshadow="2"
     inkscape:pageopacity="0.0"
     inkscape:pagecheckerboard="0"
     inkscape:deskcolor="#d1d1d1"
     inkscape:document-units="px"
     showgrid="true"
     inkscape:zoom="2.4896092"
     inkscape:cx="98.609854"
     inkscape:cy="39.765277"
     inkscape:window-width="2560"
     inkscape:window-height="1373"
     inkscape:window-x="0"
     inkscape:window-y="0"
     inkscape:window-maximized="1"
     inkscape:current-layer="layer1"><inkscape:grid
       id="grid1"
       units="px"
       originx="0"
       originy="0"
       spacingx="0.26458333"
       spacingy="0.26458333"
       empcolor="#0099e5"
       empopacity="0.30196078"
       color="#0099e5"
       opacity="0.14901961"
       empspacing="5"
       enabled="true"
       visible="true" /></sodipodi:namedview><defs
     id="defs1"><linearGradient
       id="paint0_linear_87_7435"
       x1="16.0578"
       y1="6.30617"
       x2="15.8364"
       y2="9.3059797"
       gradientUnits="userSpaceOnUse"
       gradientTransform="matrix(6.6145833,0,0,6.6145833,113.54196,-37.838727)"><stop
         stop-color="white"
         stop-opacity="0.8"
         id="stop23" /><stop
         offset="1"
         stop-color="white"
         stop-opacity="0"
         id="stop24" /></linearGradient><linearGradient
       id="paint1_linear_87_7435"
       x1="12.8966"
       y1="22.6721"
       x2="11.2506"
       y2="17.271601"
       gradientUnits="userSpaceOnUse"><stop
         stop-color="#FFEED7"
         id="stop25" /><stop
         offset="1"
         stop-color="#BDBFC2"
         id="stop26" /></linearGradient><linearGradient
       id="paint3_linear_87_7435"
       x1="16.6681"
       y1="9.6554604"
       x2="16.5748"
       y2="10.3542"
       gradientUnits="userSpaceOnUse"
       gradientTransform="matrix(6.6145833,0,0,6.6145833,113.54196,-37.838727)"><stop
         stop-color="white"
         stop-opacity="0.65"
         id="stop29" /><stop
         offset="1"
         stop-color="white"
         stop-opacity="0"
         id="stop30" /></linearGradient><linearGradient
       id="paint4_linear_87_7435"
       x1="14.434"
       y1="9.7829399"
       x2="14.5344"
       y2="10.3483"
       gradientUnits="userSpaceOnUse"
       gradientTransform="matrix(6.6145833,0,0,6.6145833,113.54196,-37.838727)"><stop
         stop-color="white"
         stop-opacity="0.65"
         id="stop31" /><stop
         offset="1"
         stop-color="white"
         stop-opacity="0"
         id="stop32" /></linearGradient><linearGradient
       id="paint5_linear_87_7435"
       x1="15.7613"
       y1="15.6306"
       x2="15.778"
       y2="19.627199"
       gradientUnits="userSpaceOnUse"
       gradientTransform="matrix(6.6145833,0,0,6.6145833,113.54196,-37.838727)"><stop
         stop-color="white"
         stop-opacity="0.8"
         id="stop33" /><stop
         offset="1"
         stop-color="white"
         stop-opacity="0"
         id="stop34" /></linearGradient><linearGradient
       id="paint6_linear_87_7435"
       x1="15.8504"
       y1="13.1247"
       x2="15.8688"
       y2="14.7138"
       gradientUnits="userSpaceOnUse"
       gradientTransform="matrix(6.6145833,0,0,6.6145833,113.54196,-37.838727)"><stop
         stop-color="white"
         stop-opacity="0.65"
         id="stop35" /><stop
         offset="1"
         stop-color="white"
         stop-opacity="0"
         id="stop36" /></linearGradient><linearGradient
       id="paint7_linear_87_7435"
       x1="11.72"
       y1="14.1055"
       x2="11.72"
       y2="19.937201"
       gradientUnits="userSpaceOnUse"
       gradientTransform="matrix(6.6145833,0,0,6.6145833,113.54196,-37.838727)"><stop
         stop-color="white"
         stop-opacity="0.65"
         id="stop37" /><stop
         offset="1"
         stop-color="white"
         stop-opacity="0"
         id="stop38" /></linearGradient><linearGradient
       id="paint8_linear_87_7435"
       x1="21.033001"
       y1="13.5359"
       x2="21.0308"
       y2="18.805201"
       gradientUnits="userSpaceOnUse"
       gradientTransform="matrix(6.6145833,0,0,6.6145833,113.54196,-37.838727)"><stop
         stop-color="white"
         stop-opacity="0.65"
         id="stop39" /><stop
         offset="1"
         stop-color="white"
         stop-opacity="0"
         id="stop40" /></linearGradient><linearGradient
       id="paint9_linear_87_7435"
       x1="11.4286"
       y1="22.437401"
       x2="10.5354"
       y2="25.4214"
       gradientUnits="userSpaceOnUse"
       gradientTransform="matrix(6.6145833,0,0,6.6145833,113.54196,-37.838727)"><stop
         stop-color="#FFA63F"
         id="stop41" /><stop
         offset="1"
         stop-color="#FFFF00"
         id="stop42" /></linearGradient><linearGradient
       id="paint10_linear_87_7435"
       x1="19.882"
       y1="21.530001"
       x2="22.2656"
       y2="24.7801"
       gradientUnits="userSpaceOnUse"
       gradientTransform="matrix(6.6145833,0,0,6.6145833,113.54196,-37.838727)"><stop
         stop-color="#FFA63F"
         id="stop43" /><stop
         offset="1"
         stop-color="#FFFF00"
         id="stop44" /></linearGradient><linearGradient
       id="paint11_linear_87_7435"
       x1="20.5198"
       y1="18.9333"
       x2="19.6863"
       y2="22.8605"
       gradientUnits="userSpaceOnUse"
       gradientTransform="matrix(6.6145833,0,0,6.6145833,113.54196,-37.838727)"><stop
         stop-color="white"
         stop-opacity="0.65"
         id="stop45" /><stop
         offset="1"
         stop-color="white"
         stop-opacity="0"
         id="stop46" /></linearGradient><linearGradient
       id="paint12_linear_87_7435"
       x1="11.2464"
       y1="19.9042"
       x2="11.4117"
       y2="24.3239"
       gradientUnits="userSpaceOnUse"
       gradientTransform="matrix(6.6145833,0,0,6.6145833,113.54196,-37.838727)"><stop
         stop-color="white"
         stop-opacity="0.65"
         id="stop47" /><stop
         offset="1"
         stop-color="white"
         stop-opacity="0"
         id="stop48" /></linearGradient><linearGradient
       id="paint13_linear_87_7435"
       x1="20.3755"
       y1="18.861601"
       x2="20.5688"
       y2="20.182199"
       gradientUnits="userSpaceOnUse"
       gradientTransform="matrix(6.6145833,0,0,6.6145833,113.54196,-37.838727)"><stop
         stop-color="white"
         stop-opacity="0.65"
         id="stop49" /><stop
         offset="1"
         stop-color="white"
         stop-opacity="0"
         id="stop50" /></linearGradient><linearGradient
       id="paint14_linear_87_7435"
       x1="15.7644"
       y1="10.784"
       x2="15.7805"
       y2="13.1098"
       gradientUnits="userSpaceOnUse"
       gradientTransform="matrix(6.6145833,0,0,6.6145833,113.54196,-37.838727)"><stop
         stop-color="#FFA63F"
         id="stop51" /><stop
         offset="1"
         stop-color="#FFFF00"
         id="stop52" /></linearGradient><linearGradient
       id="paint15_linear_87_7435"
       x1="15.5106"
       y1="10.5638"
       x2="15.5062"
       y2="11.7936"
       gradientUnits="userSpaceOnUse"
       gradientTransform="matrix(6.6145833,0,0,6.6145833,113.54196,-37.838727)"><stop
         stop-color="white"
         stop-opacity="0.65"
         id="stop53" /><stop
         offset="1"
         stop-color="white"
         stop-opacity="0"
         id="stop54" /></linearGradient><inkscape:path-effect
       effect="fillet_chamfer"
       id="path-effect4"
       is_visible="true"
       lpeversion="1"
       nodesatellites_param="F,0,0,1,0,1.0583333,0,1 @ F,0,0,1,0,1.0583333,0,1 @ F,0,0,1,0,1.0583333,0,1 @ F,0,0,1,0,1.0583333,0,1"
       radius="5"
       unit="px"
       method="auto"
       mode="F"
       chamfer_steps="1"
       flexible="false"
       use_knot_distance="true"
       apply_no_radius="true"
       apply_with_radius="true"
       only_selected="false"
       hide_knots="false" /><inkscape:path-effect
       effect="fillet_chamfer"
       id="path-effect3"
       is_visible="true"
       lpeversion="1"
       nodesatellites_param="F,0,0,1,0,1.3229166,0,1 @ F,0,0,1,0,1.3229166,0,1 @ F,0,0,1,0,1.3229166,0,1 @ F,0,0,1,0,1.3229166,0,1 @ F,0,0,1,0,1.3229166,0,1 @ F,0,0,1,0,1.3229166,0,1 @ F,0,0,1,0,1.3229166,0,1 @ F,0,0,1,0,1.3229166,0,1"
       radius="5"
       unit="px"
       method="auto"
       mode="F"
       chamfer_steps="1"
       flexible="false"
       use_knot_distance="true"
       apply_no_radius="true"
       apply_with_radius="true"
       only_selected="false"
       hide_knots="false" /><inkscape:path-effect
       effect="fillet_chamfer"
       id="path-effect2"
       is_visible="true"
       lpeversion="1"
       nodesatellites_param="F,0,0,1,0,1.3229166,0,1 @ F,0,0,1,0,1.3229166,0,1 @ F,0,0,1,0,1.3229166,0,1 @ F,0,0,1,0,1.3229166,0,1 @ F,0,0,1,0,1.3229166,0,1 @ F,0,0,1,0,1.3229166,0,1 @ F,0,0,1,0,1.3229166,0,1 @ F,0,0,1,0,1.3229166,0,1 @ F,0,0,1,0,1.3229166,0,1 @ F,0,0,1,0,1.3229166,0,1 @ F,0,0,1,0,1.3229166,0,1 @ F,0,0,1,0,1.3229166,0,1 @ F,0,0,1,0,1.3229166,0,1 @ F,0,0,1,0,1.3229166,0,1 @ F,0,0,1,0,1.3229166,0,1 @ F,0,0,1,0,1.3229166,0,1"
       radius="5"
       unit="px"
       method="auto"
       mode="F"
       chamfer_steps="1"
       flexible="false"
       use_knot_distance="true"
       apply_no_radius="true"
       apply_with_radius="true"
       only_selected="false"
       hide_knots="false" /><inkscape:path-effect
       effect="fillet_chamfer"
       id="path-effect4-2"
       is_visible="true"
       lpeversion="1"
       nodesatellites_param="F,0,0,1,0,1.3229166,0,1 @ F,0,0,1,0,1.3229166,0,1 @ F,0,0,1,0,1.3229166,0,1 @ F,0,0,1,0,1.3229166,0,1"
       radius="5"
       unit="px"
       method="auto"
       mode="F"
       chamfer_steps="1"
       flexible="false"
       use_knot_distance="true"
       apply_no_radius="true"
       apply_with_radius="true"
       only_selected="false"
       hide_knots="false" /></defs><g
     inkscape:label="Ebene 1"
     inkscape:groupmode="layer"
     id="layer1"><g
       id="g3"
       transform="translate(-62.239208,-29.544872)"><rect
         style="fill:#ffffff;fill-opacity:1;stroke:none;stroke-width:0.0541787"
         id="rect6"
         width="11.453991"
         height="18.14633"
         x="111.40166"
         y="37.330181"
         ry="0.24221012" /><path
         id="rect4-2"
         style="fill:#245fc2;fill-opacity:1;stroke-width:0.0541787"
         d="m 92.460205,32.296432 16.472875,2.87803 1.5e-4,25.80792 -0.26631,0.0938 -16.193835,-6.77641 z"
         sodipodi:nodetypes="cccccc" /><path
         style="fill:#a8a8a8;fill-opacity:1;stroke:none;stroke-width:0.0541787px;stroke-linecap:butt;stroke-linejoin:miter;stroke-opacity:1"
         d="m 92.116483,32.336532 16.290797,2.83376 c 0.0772,0.0144 0.1371,0.0643 0.18437,0.12117 0.0473,0.0569 0.0753,0.12986 0.0753,0.20837 l 0.004,7.5394 c -0.004,0.0649 -0.0428,0.1234 -0.13146,0.15663 l -0.73026,0.25985 -3.93187,-1.40111 c -0.15491,-0.036 -0.26519,-0.17315 -0.26707,-0.33218 l -0.0248,-2.09996 c -0.002,-0.15882 -0.1125,-0.29561 -0.26741,-0.33067 l -7.81592,-1.76901 c -0.133895,-0.0303 -0.260438,0.0738 -0.256558,0.21099 l 0.119863,4.2403 c 0.0045,0.1609 0.11364,0.29997 0.268832,0.34269 l 12.787153,3.50641 c 0.15428,0.0425 0.26117,0.18278 0.26117,0.3428 l -0.0158,14.91024 -0.85539,0.29814 -15.076969,-6.70268 c -0.150577,-0.0669 -0.255238,-0.20723 -0.261376,-0.3719 l -0.888096,-5.77708 0.664761,-0.33284 c 0.09347,-0.0449 0.184325,-0.0841 0.24542,-0.0625 l 2.900511,1.02162 c 0.153389,0.054 0.258077,0.19825 0.258184,0.36087 l 0.0011,1.73182 c 1.07e-4,0.16267 0.104714,0.30697 0.258074,0.36119 l 7.602971,2.68829 c 0.12383,0.0438 0.25338,-0.0492 0.25148,-0.18056 l -0.0629,-4.34065 c -0.002,-0.16178 -0.10788,-0.30394 -0.26207,-0.35301 l -11.065069,-3.52099 c -0.154866,-0.0493 -0.262149,-0.19045 -0.268159,-0.35285 l -1.084259,-13.05529 z"
         id="path1-6"
         sodipodi:nodetypes="ccsccccccccccccccccscccsssssscsssccc" /><path
         id="path2-2"
         style="fill:#00327f;fill-opacity:1;stroke:none;stroke-width:0.0541787px;stroke-linecap:butt;stroke-linejoin:miter;stroke-opacity:1"
         d="m 124.25576,36.472442 -11.69474,1.89761 c -0.15411,0.0241 -0.24209,0.15894 -0.26772,0.3128 l -3.62638,21.76685 c -2e-5,0.13229 0.13082,0.22483 0.25555,0.18074 l 15.59207,-5.76756 c 0.15411,-0.0544 0.25928,-0.19751 0.26519,-0.36084 l 0.8026,-9.16469 c -0.70309,-0.47765 -0.62956,-0.50406 -1.03149,-0.38163 l -1.34982,0.36359 c -0.12989,0.0363 -0.25797,-0.0631 -0.25513,-0.19788 l 0.037,-1.75161 c 0.003,-0.15995 0.11331,-0.29789 0.26846,-0.33693 l 1.7077,-0.42994 c 0.15557,-0.0392 0.26649,-0.17649 0.27206,-0.33682 l -0.71719,-5.56491 c 0.005,-0.14039 -0.1194,-0.25046 -0.2582,-0.22878 z m -2.73556,0.88424 c 0,0.0931 0.16452,0.0843 0.16158,0.17736 l -0.14317,4.47516 c -0.004,0.12807 -0.093,0.23773 -0.21746,0.26825 l -8.37479,2.05637 c -0.10679,0.0262 -0.20973,-0.0551 -0.20888,-0.16507 l 0.0361,-4.86754 c 0.001,-0.12617 0.0904,-0.2343 0.21418,-0.25884 l 8.48844,-1.68272 c 0.0145,-0.003 0.044,-0.0177 0.044,-0.003 z m -0.17566,9.49573 c 0.11288,9e-5 0.20326,0.0936 0.19947,0.20645 l -0.1418,4.19443 c -0.006,0.16272 -0.1118,0.30478 -0.26635,0.35598 l -8.23913,2.73096 c -0.1262,0.0418 -0.25619,-0.0526 -0.25534,-0.18561 l 0.0311,-4.67326 c 0.001,-0.16014 0.10867,-0.29997 0.26317,-0.34211 l 8.35607,-2.27986 c 0.0172,-0.005 0.035,-0.007 0.0528,-0.007 z"
         sodipodi:nodetypes="ccsccccccccccccccsccccccccsscccccccccc" /><path
         style="fill:#ffffff;stroke:none;stroke-width:0.0541787px;stroke-linecap:butt;stroke-linejoin:miter;stroke-opacity:1"
         d="m 91.100028,32.488552 16.524302,3.08165 a 0.32608552,0.32608552 0 0 1 0.2663,0.32056 v 7.39655 a 0.21517487,0.21517487 0 0 1 -0.26387,0.20959 l -4.52552,-1.05138 a 0.34521322,0.34521322 0 0 1 -0.26706,-0.33217 l -0.0248,-2.09996 a 0.34319878,0.34319878 0 0 0 -0.26741,-0.33067 l -7.81592,-1.76902 a 0.21023278,0.21023278 0 0 0 -0.256558,0.21099 l 0.119864,4.24031 a 0.36617725,0.36617725 0 0 0 0.268832,0.34269 l 12.771282,3.51619 a 0.35555762,0.35555762 0 0 1 0.26118,0.3428 v 14.65705 a 0.18294718,0.18294718 0 0 1 -0.25128,0.1697 l -15.696936,-6.32105 a 0.41769213,0.41769213 0 0 1 -0.261377,-0.3719 l -0.223334,-5.99175 a 0.18431483,0.18431483 0 0 1 0.24542,-0.18071 l 2.900511,1.02162 a 0.386656,0.386656 0 0 1 0.258184,0.36087 l 0.017,1.72204 a 0.38715521,0.38715521 0 0 0 0.258075,0.36119 l 7.602987,2.68829 a 0.18861618,0.18861618 0 0 0 0.25147,-0.18056 l -0.0629,-4.34065 a 0.37617311,0.37617311 0 0 0 -0.26207,-0.35301 l -11.06506,-3.52099 a 0.38523665,0.38523665 0 0 1 -0.268159,-0.35286 l -0.489392,-13.22436 a 0.21670527,0.21670527 0 0 1 0.256286,-0.22105 z"
         id="path1-9"
         sodipodi:nodetypes="ccccccccccccccccc" /><path
         id="path2-1"
         style="display:inline;fill:#245fc2;fill-opacity:1;stroke:none;stroke-width:0.0541787px;stroke-linecap:butt;stroke-linejoin:miter;stroke-opacity:1"
         d="m 125.85639,32.560912 -17.18947,0.0566 v 28.4587 l 16.38165,-5.77213 c 0.15411,-0.0544 0.25928,-0.19752 0.26518,-0.36084 l 0.33576,-9.45003 c 0.005,-0.13393 -0.12203,-0.23385 -0.25111,-0.19777 l -1.66336,0.46507 c -0.12988,0.0363 -0.25796,-0.063 -0.25512,-0.19788 l 0.037,-1.75161 c 0.003,-0.15995 0.11332,-0.29789 0.26846,-0.33693 l 1.7077,-0.42994 c 0.15557,-0.0392 0.26649,-0.17649 0.27206,-0.33682 l 0.34942,-9.91764 c 0.005,-0.1404 -0.11941,-0.25046 -0.2582,-0.22878 z m -3.64058,5.41432 -0.14317,4.47517 c -0.004,0.12807 -0.093,0.23773 -0.21746,0.26825 l -8.37479,2.05637 c -0.1068,0.0262 -0.20974,-0.0551 -0.20889,-0.16508 l 0.0361,-4.86754 c 0.001,-0.12616 0.0904,-0.23429 0.21418,-0.25883 l 8.48845,-1.68273 c 0.0917,-0.0176 0.20653,0.0223 0.2056,0.17439 z m -0.33725,9.31838 c 0.11289,8e-5 0.20327,0.0936 0.19947,0.20645 l -0.14179,4.19443 c -0.006,0.16272 -0.1118,0.30477 -0.26635,0.35597 l -8.23913,2.73097 c -0.12621,0.0418 -0.2562,-0.0526 -0.25534,-0.18561 l 0.0311,-4.67326 c 0.001,-0.16014 0.10867,-0.29997 0.26317,-0.34211 l 8.35606,-2.27986 c 0.0172,-0.005 0.035,-0.007 0.0528,-0.007 z"
         sodipodi:nodetypes="cccccccccccccccccccccccccccccccccc" /><path
         style="fill:#5388e1;fill-opacity:1;stroke:none;stroke-width:0.0541787px;stroke-linecap:butt;stroke-linejoin:miter;stroke-opacity:1"
         d="m 108.66692,30.281162 17.24585,2.27804 -17.24585,2.65626 -16.550437,-2.87893 z"
         id="path4-2"
         sodipodi:nodetypes="ccccc" /></g><text
       xml:space="preserve"
       style="font-size:16.1586px;line-height:1.25;font-family:'Dream Orphanage';-inkscape-font-specification:'Dream Orphanage, Normal';fill:#2660c1;fill-opacity:1;stroke:none;stroke-width:0.437723"
       x="-0.39749545"
       y="46.813465"
       id="text1"><tspan
         sodipodi:role="line"
         id="tspan1"
         style="font-style:normal;font-variant:normal;font-weight:bold;font-stretch:normal;font-family:'Mukti Narrow';-inkscape-font-specification:'Mukti Narrow Bold';fill:#2660c1;fill-opacity:1;stroke:none;stroke-width:0.437723"
         x="-0.39749545"
         y="46.813465">SmallBASIC</tspan></text></g></svg>
